#!OML:ASF F:\VICON\USERDATA\INSTALL\rory3\rory3.ASF
:FULLY-SPECIFIED
:DEGREES
1101
root -2.33712 16.5603 13.8229 -164.577 -18.7682 -171.963
lowerback -6.06925 4.97495 5.83072
upperback -8.79343 5.58754 4.51565
thorax -5.69399 2.10462 1.60581
lowerneck -1.88543 12.4016 8.16279
upperneck 26.7278 13.0385 7.73492
head 8.77182 7.07375 2.25886
rclavicle -1.10325e-014 -2.94201e-014
rhumerus -81.7671 44.5163 -125.085
rradius 47.3948
rwrist -44.6094
rhand 28.4097 -2.4804
rfingers 7.12502
rthumb 52.2716 -22.4233
lclavicle -1.10325e-014 -2.94201e-014
lhumerus -33.9129 -71.7271 81.7271
lradius 61.6257
lwrist 20.9032
lhand 23.5948 22.934
lfingers 7.12502
lthumb 47.868 45.2082
rfemur -9.42487 0.391055 34.9024
rtibia 24.5856
rfoot -26.601 -29.6936
rtoes 3.87167
lfemur -52.1947 -3.81948 -13.2033
ltibia 29.1816
lfoot -59.3792 32.4907
ltoes 41.4431
1102
root -2.4156 16.6003 13.6464 -165.686 -20.6206 -172.955
lowerback -5.61766 4.33933 5.29052
upperback -8.69387 4.86871 4.30743
thorax -5.87021 1.81069 1.63776
lowerneck -1.05273 12.6617 8.85901
upperneck 25.8811 13.5368 7.64638
head 8.40227 7.35929 2.07929
rclavicle 1.0953e-013 3.02153e-014
rhumerus -81.8157 43.4522 -124.822
rradius 47.4536
rwrist -44.4996
rhand 28.4918 -2.36847
rfingers 7.12502
rthumb 52.346 -22.2663
lclavicle 1.0953e-013 3.02153e-014
lhumerus -32.6003 -71.6 78.9076
lradius 60.1096
lwrist 19.6469
lhand 22.6619 22.9496
lfingers 7.12502
lthumb 47.0063 45.613
rfemur -6.85232 -0.547466 34.3121
rtibia 23.785
rfoot -27.6344 -30.2999
rtoes 4.37826
lfemur -50.1046 -5.41052 -14.3929
ltibia 29.1828
lfoot -58.8063 32.0935
ltoes 40.8959
1103
root -2.50459 16.6307 13.5378 -165.484 -20.5482 -173.178
lowerback -5.98898 4.62476 5.40127
upperback -8.86663 5.19022 4.12015
thorax -5.81755 1.94515 1.40822
lowerneck -0.368855 12.8415 9.36166
upperneck 24.7435 14.0299 7.39334
head 7.96012 7.61718 1.86959
rclavicle -1.38155e-014 -4.29375e-014
rhumerus -81.8732 42.7768 -124.551
rradius 47.5795
rwrist -44.6493
rhand 28.7249 -2.5265
rfingers 7.12502
rthumb 52.557 -22.2954
lclavicle -1.38155e-014 -4.29375e-014
lhumerus -30.0278 -71.6292 75.2338
lradius 58.3441
lwrist 18.3767
lhand 21.6135 22.6081
lfingers 7.12502
lthumb 46.0351 45.688
rfemur -6.2068 -0.0397172 33.8064
rtibia 23.1392
rfoot -26.8156 -30.5336
rtoes 3.25786
lfemur -49.7521 -4.86235 -15.2787
ltibia 29.1618
lfoot -58.0532 32.8305
ltoes 40.2994
1104
root -2.58912 16.6601 13.4245 -165.335 -20.6614 -173.345
lowerback -6.38803 4.78636 5.41161
upperback -8.9792 5.34271 4.13273
thorax -5.7139 2.00811 1.44487
lowerneck -0.90557 13.2718 8.85101
upperneck 24.7455 14.536 8.05473
head 7.95635 7.89939 2.22532
rclavicle 1.5207e-014 -7.95139e-016
rhumerus -82.148 42.3776 -124.338
rradius 47.8825
rwrist -44.7744
rhand 28.945 -3.08891
rfingers 7.12502
rthumb 52.756 -22.7345
lclavicle 1.5207e-014 -7.95139e-016
lhumerus -27.2002 -71.0037 71.382
lradius 56.7302
lwrist 17.0123
lhand 21.4723 22.1849
lfingers 7.12502
lthumb 45.9041 45.3192
rfemur -5.45459 0.377872 33.4625
rtibia 22.4554
rfoot -26.3393 -30.3258
rtoes 2.01112
lfemur -49.387 -4.43871 -16.056
ltibia 29.1405
lfoot -57.172 33.2875
ltoes 40.2472
1105
root -2.66918 16.6904 13.3101 -165.32 -20.8711 -173.464
lowerback -6.64012 4.94388 5.43329
upperback -9.17151 5.50227 4.13982
thorax -5.77837 2.06678 1.46014
lowerneck -0.80112 13.53 8.59446
upperneck 24.4109 14.909 8.47061
head 7.76555 8.09849 2.39101
rclavicle 3.34952e-014 2.54444e-014
rhumerus -82.2508 41.6014 -123.813
rradius 48.1239
rwrist -44.4273
rhand 29.0661 -3.42619
rfingers 7.12502
rthumb 52.8654 -23.0034
lclavicle 3.34952e-014 2.54444e-014
lhumerus -24.982 -70.5661 68.0674
lradius 55.1927
lwrist 15.6088
lhand 21.2598 21.5519
lfingers 7.12502
lthumb 45.7068 44.7675
rfemur -4.64336 0.730947 33.2368
rtibia 21.8703
rfoot -26.2575 -29.9074
rtoes 0.329308
lfemur -48.8309 -4.06425 -16.7391
ltibia 29.1547
lfoot -56.4289 32.8039
ltoes 40.3649
1106
root -2.75623 16.7164 13.2506 -164.231 -19.4571 -172.906
lowerback -7.40841 5.93368 6.07411
upperback -9.75439 6.60879 4.0046
thorax -5.88871 2.49523 1.06076
lowerneck -0.721483 13.7376 8.428
upperneck 24.0078 15.2236 8.81855
head 7.5692 8.27098 2.51475
rclavicle 1.472e-013 6.67916e-014
rhumerus -81.9145 40.7057 -123.02
rradius 47.9966
rwrist -44.012
rhand 29.37 -3.44667
rfingers 7.12502
rthumb 53.1396 -22.8502
lclavicle 1.472e-013 6.67916e-014
lhumerus -22.2986 -70.5673 64.3829
lradius 53.6095
lwrist 14.4667
lhand 20.7786 21.2354
lfingers 7.12502
lthumb 45.2597 44.6319
rfemur -5.42747 2.16015 33.0059
rtibia 21.324
rfoot -24.0987 -29.7752
rtoes -1.37717
lfemur -49.8607 -3.62417 -16.0734
ltibia 29.2587
lfoot -57.9115 33.349
ltoes 40.782
